<?xml version="1.0" encoding="utf-8"?>
<!-- Generator: Adobe Illustrator 26.3.1, SVG Export Plug-In . SVG Version: 6.00 Build 0)  -->
<svg version="1.1" id="Layer_1" xmlns="http://www.w3.org/2000/svg" xmlns:xlink="http://www.w3.org/1999/xlink" x="0px" y="0px"
	 viewBox="0 0 100 100" style="enable-background:new 0 0 100 100;" xml:space="preserve">
<path d="M71.28,66.52c7.77-6.24,12.76-15.81,12.76-26.56C84.04,21.16,68.8,5.92,50,5.92S15.96,21.16,15.96,39.96
	c0,10.75,4.99,20.32,12.76,26.56C18.23,69.26,9.54,73.96,4,79.83v16.25h92V79.83C90.46,73.96,81.77,69.26,71.28,66.52z M27.96,27.26
	l9.35-9.35L50,30.61l12.7-12.7l9.35,9.35l-12.7,12.7l12.7,12.7L62.7,62L50,49.31L37.3,62l-9.35-9.35l12.7-12.7L27.96,27.26z"/>
</svg>
