<?xml version="1.0" encoding="utf-8"?>
<!-- Generator: Adobe Illustrator 26.3.1, SVG Export Plug-In . SVG Version: 6.00 Build 0)  -->
<svg version="1.1" id="Layer_1" xmlns="http://www.w3.org/2000/svg" xmlns:xlink="http://www.w3.org/1999/xlink" x="0px" y="0px"
	 viewBox="0 0 100 100" style="enable-background:new 0 0 100 100;" xml:space="preserve">
<path d="M39.81,48.86l-23.3,6.27c-3.48-4.65-6.42-10.42-7.95-16.2C4.25,22.65,10.3,2.87,18.51,2.01
	c7.78-0.83,17.26,15.36,20.21,28.82C39.94,36.45,40.35,42.99,39.81,48.86z M19.37,65.95c0.08,0.62,0.21,1.42,0.45,2.32
	c1.46,5.53,6.54,13.91,13.03,13.27c5.69-0.56,9.81-7.77,10.41-13.58c0.39-3.65-0.64-6.59-1.36-8.19L19.37,65.95z M81.97,17.74
	c-7.95-0.92-18.17,16.01-21.61,30.12c-1.43,5.9-2.05,12.78-1.68,18.94l23.7,6.74c3.7-4.86,6.9-10.9,8.65-16.95
	C95.95,39.51,90.35,18.7,81.97,17.74z M55.15,84.59c0.52,5.64,4.53,12.72,10.2,13.39c6.47,0.75,11.65-7.23,13.18-12.56
	c0.25-0.86,0.38-1.64,0.47-2.23L56.6,76.7C55.89,78.21,54.82,81.04,55.15,84.59z"/>
</svg>
