<?xml version="1.0" encoding="utf-8"?>
<!-- Generator: Adobe Illustrator 26.3.1, SVG Export Plug-In . SVG Version: 6.00 Build 0)  -->
<svg version="1.1" id="Layer_1" xmlns="http://www.w3.org/2000/svg" xmlns:xlink="http://www.w3.org/1999/xlink" x="0px" y="0px"
	 viewBox="0 0 100 100" style="enable-background:new 0 0 100 100;" xml:space="preserve">
<path d="M86.09,5.3H13.91c-4.73,0-8.6,3.87-8.6,8.6v72.18c0,4.73,3.87,8.6,8.6,8.6h72.18c4.73,0,8.6-3.87,8.6-8.6V13.91
	C94.69,9.17,90.82,5.3,86.09,5.3z M80.08,40.83H61.04l0.05-3.65H40.37l-0.01,12.82l0.01,12.82h20.72l-0.05-3.65h19.04v21.52h-19
	h-0.05H40.38h-0.05h-0.01v0.01H21.37v-0.01V19.32v-0.01h18.95v0.01h0.01h0.05h20.66h0.05h19V40.83z"/>
</svg>
