<?xml version="1.0" encoding="utf-8"?>
<!-- Generator: Adobe Illustrator 26.3.1, SVG Export Plug-In . SVG Version: 6.00 Build 0)  -->
<svg version="1.1" id="Layer_1" xmlns="http://www.w3.org/2000/svg" xmlns:xlink="http://www.w3.org/1999/xlink" x="0px" y="0px"
	 viewBox="0 0 100 100" style="enable-background:new 0 0 100 100;" xml:space="preserve">
<path d="M82.97,78.53c0,6.24-5.06,11.31-11.3,11.31c-6.24,0-11.3-5.06-11.3-11.3c0-6.24,5.04-11.31,11.3-11.31
	C77.92,67.23,82.97,72.29,82.97,78.53z"/>
<path d="M29.31,67.23c-6.25,0-11.31,5.06-11.31,11.31s5.07,11.31,11.31,11.31s11.31-5.06,11.31-11.31S35.57,67.23,29.31,67.23z"/>
<path d="M88.2,50.83c-0.74-0.73-1.61-1.46-2.62-2.16c-1.01-0.7-1.69-1.79-1.81-3.01c-0.98-10.49-3.21-20.91-5.03-31.29
	c-0.44-2.52-1.71-3.87-3.81-3.87h-50.8c-2.02,0-3.74,1.49-4.02,3.49c-1.51,10.64-3.03,21.28-4.54,31.92
	c-0.15,1.07-0.73,2.03-1.59,2.67c-1,0.75-1.86,1.53-2.6,2.31C4.6,57.98,4.51,68.15,5.1,73.87c0.21,2.08,1.95,3.66,4.04,3.66h0.58
	c1.93,0,1.92-1.41,2.31-3.3c1.51-7.36,9.68-14.48,17.49-14.48s15.82,7.02,17.33,14.38c0.39,1.89,0.54,3.41,2.47,3.41h1.99
	c1.93,0,1.92-1.1,2.31-2.99c1.51-7.36,9.68-14.79,17.49-14.79s15.92,7.22,17.43,14.58c0.39,1.89,0.44,3.2,2.37,3.2
	c2.11,0,3.86-1.61,4.05-3.7C95.47,68.09,95.24,57.71,88.2,50.83z M44.72,38.87c0,0.88-0.66,1.59-1.48,1.59H30.79
	c-0.82,0-1.48-0.71-1.48-1.59c0.73-5.33,1.45-10.65,2.18-15.98c0.01-0.15,0.05-0.67,0.43-1.12c0.33-0.39,0.72-0.5,0.87-0.54
	c3.48,0,6.96,0,10.45,0c0.82,0,1.48,0.71,1.48,1.59V38.87z M69.21,40.46H56.76c-0.82,0-1.48-0.71-1.48-1.59V22.83
	c0-0.88,0.66-1.59,1.48-1.59c3.48,0,6.96,0,10.45,0c0.15,0.04,0.54,0.15,0.87,0.54c0.38,0.45,0.43,0.97,0.43,1.12
	c0.73,5.33,1.45,10.65,2.18,15.98C70.69,39.75,70.02,40.46,69.21,40.46z"/>
</svg>
